<svg width="725" height="203" viewBox="0 0 725 203" fill="none" xmlns="http://www.w3.org/2000/svg">
<path fill-rule="evenodd" clip-rule="evenodd" d="M58 3C58 1.34315 59.3431 0 61 0H73C74.6569 0 76 1.34315 76 3V28H93V3C93 1.34315 94.3431 0 96 0H108C109.657 0 111 1.34315 111 3V28H128V3C128 1.34315 129.343 0 131 0H143C144.657 0 146 1.34315 146 3V28H157C167.493 28 176 36.5066 176 47V58H200C201.657 58 203 59.3432 203 61V73C203 74.6569 201.657 76 200 76H176V93H200C201.657 93 203 94.3432 203 96V108C203 109.657 201.657 111 200 111H176V128H200C201.657 128 203 129.343 203 131V143C203 144.657 201.657 146 200 146H176V157C176 167.493 167.493 176 157 176H146V200C146 201.657 144.657 203 143 203H131C129.343 203 128 201.657 128 200V176H111V200C111 201.657 109.657 203 108 203H96C94.3431 203 93 201.657 93 200V176H76V200C76 201.657 74.6569 203 73 203H61C59.3431 203 58 201.657 58 200V176H47C36.5066 176 28 167.493 28 157V146H3C1.34315 146 0 144.657 0 143V131C0 129.343 1.34315 128 3 128H28V111H3C1.34315 111 0 109.657 0 108V96C0 94.3431 1.34315 93 3 93H28V76H3C1.34315 76 0 74.6569 0 73V61C0 59.3431 1.34315 58 3 58L28 58V47C28 36.5066 36.5066 28 47 28H58V3ZM55 42C47.268 42 41 48.268 41 56V148C41 155.732 47.268 162 55 162H147C154.732 162 161 155.732 161 148V56C161 48.268 154.732 42 147 42H55ZM58 50C53.0294 50 49 54.0294 49 59V145C49 149.971 53.0294 154 58 154H144C148.971 154 153 149.971 153 145V59C153 54.0294 148.971 50 144 50H58ZM119.75 65.75H103.344V112.578C103.344 115.641 102.719 118.031 101.469 119.75C100.25 121.438 98.5 122.281 96.2188 122.281C93.6875 122.281 91.875 121.578 90.7812 120.172C89.7188 118.766 89.1875 116.5 89.1875 113.375H72.6875C72.6875 120.25 74.75 125.562 78.875 129.312C83 133.062 88.7812 134.938 96.2188 134.938C100.656 134.938 104.672 134 108.266 132.125C111.891 130.25 114.703 127.609 116.703 124.203C118.734 120.797 119.75 116.922 119.75 112.578V65.75Z" fill="#4AC9F0"/>
<path d="M283.281 79.5H268.25L265.625 88H253.906L270.594 42.5H280.906L297.719 88H285.938L283.281 79.5ZM270.875 71.0312H280.656L275.75 55.25L270.875 71.0312ZM321.031 63.7188L317.562 63.4688C314.25 63.4688 312.125 64.5104 311.188 66.5938V88H300.656V54.1875H310.531L310.875 58.5312C312.646 55.2188 315.115 53.5625 318.281 53.5625C319.406 53.5625 320.385 53.6875 321.219 53.9375L321.031 63.7188ZM322.875 70.75C322.875 65.375 324.042 61.1667 326.375 58.125C328.708 55.0833 331.927 53.5625 336.031 53.5625C339.49 53.5625 342.26 54.9792 344.344 57.8125L345.094 54.1875H354.219V101H343.656V85.1875C341.635 87.4792 339.073 88.625 335.969 88.625C331.969 88.625 328.781 87.0833 326.406 84C324.052 80.8958 322.875 76.4792 322.875 70.75ZM333.406 71.4062C333.406 77.4688 335.156 80.5 338.656 80.5C341.073 80.5 342.74 79.5833 343.656 77.75V64.375C342.781 62.5833 341.135 61.6875 338.719 61.6875C335.448 61.6875 333.688 64.3021 333.438 69.5312L333.406 71.4062ZM380.344 84.3438C378.115 87.1979 375.104 88.625 371.312 88.625C367.604 88.625 364.792 87.5521 362.875 85.4062C360.979 83.2396 360.031 80.1354 360.031 76.0938V54.1875H370.562V76.1562C370.562 79.0521 371.969 80.5 374.781 80.5C377.198 80.5 378.917 79.6354 379.938 77.9062V54.1875H390.531V88H380.656L380.344 84.3438ZM407.438 88H396.875V54.1875H407.438V88ZM396.25 45.4688C396.25 43.9688 396.792 42.7396 397.875 41.7812C398.958 40.8229 400.365 40.3438 402.094 40.3438C403.823 40.3438 405.229 40.8229 406.312 41.7812C407.396 42.7396 407.938 43.9688 407.938 45.4688C407.938 46.9688 407.396 48.1979 406.312 49.1562C405.229 50.1146 403.823 50.5938 402.094 50.5938C400.365 50.5938 398.958 50.1146 397.875 49.1562C396.792 48.1979 396.25 46.9688 396.25 45.4688ZM426.219 45.7812V54.1875H431.781V61.5H426.219V76.9688C426.219 78.2396 426.448 79.125 426.906 79.625C427.365 80.125 428.271 80.375 429.625 80.375C430.667 80.375 431.542 80.3125 432.25 80.1875V87.7188C430.354 88.3229 428.375 88.625 426.312 88.625C422.688 88.625 420.01 87.7708 418.281 86.0625C416.552 84.3542 415.688 81.7604 415.688 78.2812V61.5H411.375V54.1875H415.688V45.7812H426.219ZM452.312 88.625C447.125 88.625 442.927 87.0833 439.719 84C436.51 80.8958 434.906 76.8646 434.906 71.9062V71.0312C434.906 67.5729 435.542 64.5208 436.812 61.875C438.104 59.2292 439.979 57.1875 442.438 55.75C444.896 54.2917 447.812 53.5625 451.188 53.5625C455.938 53.5625 459.688 55.0417 462.438 58C465.188 60.9375 466.562 65.0417 466.562 70.3125V74.4062H445.625C446 76.3021 446.823 77.7917 448.094 78.875C449.365 79.9583 451.01 80.5 453.031 80.5C456.365 80.5 458.969 79.3333 460.844 77L465.656 82.6875C464.344 84.5 462.479 85.9479 460.062 87.0312C457.667 88.0938 455.083 88.625 452.312 88.625ZM451.125 61.6875C448.042 61.6875 446.208 63.7292 445.625 67.8125H456.25V67C456.292 65.3125 455.865 64.0104 454.969 63.0938C454.073 62.1562 452.792 61.6875 451.125 61.6875ZM485.125 80.5C486.604 80.5 487.75 80.1042 488.562 79.3125C489.375 78.5 489.771 77.375 489.75 75.9375H499.625C499.625 79.6458 498.292 82.6875 495.625 85.0625C492.979 87.4375 489.562 88.625 485.375 88.625C480.458 88.625 476.583 87.0833 473.75 84C470.917 80.9167 469.5 76.6458 469.5 71.1875V70.75C469.5 67.3333 470.125 64.3229 471.375 61.7188C472.646 59.0938 474.469 57.0833 476.844 55.6875C479.219 54.2708 482.031 53.5625 485.281 53.5625C489.677 53.5625 493.167 54.7812 495.75 57.2188C498.333 59.6562 499.625 62.9583 499.625 67.125H489.75C489.75 65.375 489.323 64.0312 488.469 63.0938C487.615 62.1562 486.469 61.6875 485.031 61.6875C482.302 61.6875 480.708 63.4271 480.25 66.9062C480.104 68.0104 480.031 69.5312 480.031 71.4688C480.031 74.8646 480.438 77.2188 481.25 78.5312C482.062 79.8438 483.354 80.5 485.125 80.5ZM516.344 45.7812V54.1875H521.906V61.5H516.344V76.9688C516.344 78.2396 516.573 79.125 517.031 79.625C517.49 80.125 518.396 80.375 519.75 80.375C520.792 80.375 521.667 80.3125 522.375 80.1875V87.7188C520.479 88.3229 518.5 88.625 516.438 88.625C512.812 88.625 510.135 87.7708 508.406 86.0625C506.677 84.3542 505.812 81.7604 505.812 78.2812V61.5H501.5V54.1875H505.812V45.7812H516.344ZM546.219 84.3438C543.99 87.1979 540.979 88.625 537.188 88.625C533.479 88.625 530.667 87.5521 528.75 85.4062C526.854 83.2396 525.906 80.1354 525.906 76.0938V54.1875H536.438V76.1562C536.438 79.0521 537.844 80.5 540.656 80.5C543.073 80.5 544.792 79.6354 545.812 77.9062V54.1875H556.406V88H546.531L546.219 84.3438ZM582.656 63.7188L579.188 63.4688C575.875 63.4688 573.75 64.5104 572.812 66.5938V88H562.281V54.1875H572.156L572.5 58.5312C574.271 55.2188 576.74 53.5625 579.906 53.5625C581.031 53.5625 582.01 53.6875 582.844 53.9375L582.656 63.7188ZM604.562 88C604.188 87.3125 603.854 86.3021 603.562 84.9688C601.625 87.4062 598.917 88.625 595.438 88.625C592.25 88.625 589.542 87.6667 587.312 85.75C585.083 83.8125 583.969 81.3854 583.969 78.4688C583.969 74.8021 585.323 72.0312 588.031 70.1562C590.74 68.2812 594.677 67.3438 599.844 67.3438H603.094V65.5625C603.094 62.4583 601.75 60.9062 599.062 60.9062C596.562 60.9062 595.312 62.1354 595.312 64.5938H584.781C584.781 61.3229 586.167 58.6667 588.938 56.625C591.729 54.5833 595.281 53.5625 599.594 53.5625C603.906 53.5625 607.312 54.6146 609.812 56.7188C612.312 58.8229 613.594 61.7083 613.656 65.375V80.3438C613.698 83.4479 614.177 85.8229 615.094 87.4688V88H604.562ZM597.969 81.125C599.281 81.125 600.365 80.8438 601.219 80.2812C602.094 79.7188 602.719 79.0833 603.094 78.375V72.9688H600.031C596.365 72.9688 594.531 74.6146 594.531 77.9062C594.531 78.8646 594.854 79.6458 595.5 80.25C596.146 80.8333 596.969 81.125 597.969 81.125ZM646.906 72.5625V88H635.938V42.5H654.094C657.573 42.5 660.646 43.1458 663.312 44.4375C666 45.7083 668.073 47.5312 669.531 49.9062C671.01 52.2604 671.75 54.9375 671.75 57.9375C671.75 62.375 670.156 65.9271 666.969 68.5938C663.802 71.2396 659.448 72.5625 653.906 72.5625H646.906ZM646.906 64.0938H654.094C656.219 64.0938 657.833 63.5625 658.938 62.5C660.062 61.4375 660.625 59.9375 660.625 58C660.625 55.875 660.052 54.1771 658.906 52.9062C657.76 51.6354 656.198 50.9896 654.219 50.9688H646.906V64.0938ZM714.438 72.5938C714.292 75.7604 713.438 78.5625 711.875 81C710.312 83.4167 708.115 85.2917 705.281 86.625C702.469 87.9583 699.25 88.625 695.625 88.625C689.646 88.625 684.938 86.6771 681.5 82.7812C678.062 78.8854 676.344 73.3854 676.344 66.2812V64.0312C676.344 59.5729 677.115 55.6771 678.656 52.3438C680.219 48.9896 682.458 46.4062 685.375 44.5938C688.292 42.7604 691.667 41.8438 695.5 41.8438C701.021 41.8438 705.458 43.3021 708.812 46.2188C712.167 49.1146 714.073 53.1146 714.531 58.2188H703.594C703.51 55.4479 702.812 53.4583 701.5 52.25C700.188 51.0417 698.188 50.4375 695.5 50.4375C692.771 50.4375 690.771 51.4583 689.5 53.5C688.229 55.5417 687.562 58.8021 687.5 63.2812V66.5C687.5 71.3542 688.104 74.8229 689.312 76.9062C690.542 78.9896 692.646 80.0312 695.625 80.0312C698.146 80.0312 700.073 79.4375 701.406 78.25C702.74 77.0625 703.448 75.1771 703.531 72.5938H714.438Z" fill="black"/>
<rect x="254" y="121" width="471" height="25" fill="#4AC9F0"/>
</svg>
